<?xml version="1.0" encoding="utf-8"?>
<svg id="master-artboard" viewBox="0 0 1400 980" version="1.1" xmlns="http://www.w3.org/2000/svg" x="0px" y="0px" width="1400px" height="980px" enable-background="new 0 0 1400 980">
<path d="M 0 0 H 1400 V 980 H 0 V 0 Z" fill="#F9EBC3"/>
<g>
	<path fill="#6C688C" d="M436,292.667C436,327.092,408.093,355,373.667,355H206.333C171.907,355,144,327.092,144,292.667v-0.333&#10;&#9;&#9;C144,257.908,171.907,230,206.333,230h167.334C408.093,230,436,257.908,436,292.333V292.667z"/>
	<path fill="#6C688C" d="M379,181.101C379,202.032,362.032,219,341.102,219H238.898C217.968,219,201,202.032,201,181.101v-0.202&#10;&#9;&#9;C201,159.968,217.968,143,238.898,143h102.203C362.032,143,379,159.968,379,180.899V181.101z"/>
	<path fill="#6C688C" d="M334,114.051c0,10.465-8.484,18.949-18.949,18.949h-51.102C253.484,133,245,124.516,245,114.051v-0.102&#10;&#9;&#9;C245,103.484,253.484,95,263.949,95h51.102C325.516,95,334,103.484,334,113.949V114.051z"/>
	<g>
		<g>
			<path fill="#422421" d="M286,114c0,36.789,0,73.577,0,110.365c0,63.049,0,126.098,0,189.146c0,21.829,0,43.659,0,65.488&#10;&#9;&#9;&#9;&#9;c0,4.514,7,4.514,7,0c0-36.789,0-73.577,0-110.365c0-63.049,0-126.098,0-189.146c0-21.829,0-43.659,0-65.488&#10;&#9;&#9;&#9;&#9;C293,109.486,286,109.486,286,114L286,114z"/>
		</g>
	</g>
	<g>
		<g>
			<path fill="#422421" d="M292.975,329.475c21.167-17,42.333-34,63.5-51c3.52-2.827-1.467-7.748-4.95-4.95&#10;&#9;&#9;&#9;&#9;c-21.167,17-42.333,34-63.5,51C284.505,327.352,289.492,332.272,292.975,329.475L292.975,329.475z"/>
		</g>
	</g>
	<g>
		<g>
			<path fill="#422421" d="M291.311,201.822c-11.279-9.766-22.558-19.531-33.836-29.297c-3.395-2.939-8.369,1.99-4.95,4.95&#10;&#9;&#9;&#9;&#9;c11.279,9.766,22.558,19.531,33.836,29.297C289.756,209.711,294.729,204.782,291.311,201.822L291.311,201.822z"/>
		</g>
	</g>
	<g>
		<g>
			<path fill="#422421" d="M290.561,186.394c10.917-9.889,21.833-19.778,32.75-29.667c1.437-1.301-0.691-3.417-2.121-2.121&#10;&#9;&#9;&#9;&#9;c-10.917,9.889-21.833,19.778-32.75,29.667C287.003,185.574,289.131,187.689,290.561,186.394L290.561,186.394z"/>
		</g>
	</g>
	<g>
		<g>
			<path fill="#422421" d="M290.311,285.273c-10.917-9.889-21.833-19.778-32.75-29.667c-1.43-1.295-3.558,0.82-2.121,2.121&#10;&#9;&#9;&#9;&#9;c10.917,9.889,21.833,19.778,32.75,29.667C289.619,288.689,291.747,286.574,290.311,285.273L290.311,285.273z"/>
		</g>
	</g>
	<g>
		<g>
			<path fill="#422421" d="M324.601,302.946c9.667,1.833,19.333,3.667,29,5.5c1.891,0.358,2.697-2.532,0.798-2.893&#10;&#9;&#9;&#9;&#9;c-9.667-1.833-19.333-3.667-29-5.5C323.508,299.695,322.702,302.586,324.601,302.946L324.601,302.946z"/>
		</g>
	</g>
	<path fill="#A3A3D3" d="M224.88,290.98c5.51,3.843,6.795,9.47,4.057,13.396c-2.738,3.925-8.463,4.664-13.973,0.821&#10;&#9;&#9;c-7.696-5.368-13.586-20.71-13.9-20.261C200.751,285.385,217.184,285.612,224.88,290.98z"/>
	<path fill="#A3A3D3" d="M235.88,393.98c5.51,3.843,6.795,9.47,4.057,13.396c-2.738,3.925-8.463,4.664-13.973,0.821&#10;&#9;&#9;c-7.696-5.368-13.586-20.71-13.9-20.261C211.751,388.385,228.184,388.612,235.88,393.98z"/>
	<path fill="#A3A3D3" d="M392.532,302.241c-4.659,4.838-10.419,5.225-13.867,1.904c-3.446-3.32-3.277-9.09,1.383-13.928&#10;&#9;&#9;c6.509-6.759,22.585-10.167,22.191-10.548C401.846,279.29,399.041,295.482,392.532,302.241z"/>
	<path fill="#A3A3D3" d="M335.729,191.663c-3.314,3.85-7.648,4.384-10.392,2.021c-2.742-2.362-2.856-6.726,0.458-10.576&#10;&#9;&#9;c4.631-5.377,16.626-8.628,16.313-8.899C341.796,173.94,340.36,186.286,335.729,191.663z"/>
	<path fill="#A3A3D3" d="M347.461,430.064c-3.55-3.634-3.708-7.998-1.118-10.527c2.59-2.528,6.947-2.266,10.497,1.369&#10;&#9;&#9;c4.958,5.078,7.161,17.309,7.459,17.02C364.595,437.637,352.418,435.141,347.461,430.064z"/>
</g>
<g>
	<g>
		<path fill="#422421" d="M85,483c19.389,0,38.777,0,58.166,0c50.599,0,101.198,0,151.797,0c70.46,0,140.921,0,211.381,0&#10;&#9;&#9;&#9;c78.973,0,157.945,0,236.918,0c76.135,0,152.27,0,228.405,0c61.948,0,123.896,0,185.845,0c36.413,0,72.825,0,109.237,0&#10;&#9;&#9;&#9;c5.084,0,10.167,0,15.251,0c4.514,0,4.514-7,0-7c-19.389,0-38.777,0-58.165,0c-50.6,0-101.198,0-151.798,0&#10;&#9;&#9;&#9;c-70.46,0-140.921,0-211.381,0c-78.973,0-157.945,0-236.917,0c-76.135,0-152.271,0-228.405,0c-61.949,0-123.897,0-185.846,0&#10;&#9;&#9;&#9;c-36.412,0-72.825,0-109.237,0c-5.083,0-10.167,0-15.25,0C80.486,476,80.486,483,85,483L85,483z"/>
	</g>
</g>
<g>
	<path fill="#6C688C" d="M702.188,102.623c-9.187-21.792-24.27-21.814-33.518-0.047l-90.856,213.848&#10;&#9;&#9;C568.566,338.191,580.35,356,604,356h162c23.65,0,35.483-17.831,26.297-39.623L702.188,102.623z"/>
	<g>
		<g>
			<path fill="#422421" d="M682,126c0,37.621,0,75.242,0,112.864c0,62.28,0,124.561,0,186.841c0,17.765,0,35.53,0,53.295&#10;&#9;&#9;&#9;&#9;c0,4.514,7,4.514,7,0c0-37.621,0-75.242,0-112.864c0-62.28,0-124.561,0-186.841c0-17.765,0-35.53,0-53.295&#10;&#9;&#9;&#9;&#9;C689,121.486,682,121.486,682,126L682,126z"/>
		</g>
	</g>
	<g>
		<g>
			<path fill="#422421" d="M687.267,323.978c-15.126-9.955-30.253-19.909-45.379-29.863c-3.783-2.49-7.286,3.575-3.533,6.044&#10;&#9;&#9;&#9;&#9;c15.126,9.955,30.253,19.909,45.379,29.863C687.517,332.512,691.019,326.447,687.267,323.978L687.267,323.978z"/>
		</g>
	</g>
	<g>
		<g>
			<path fill="#422421" d="M687.311,201.822c-5.639-4.883-11.278-9.766-16.918-14.648c-3.395-2.939-8.368,1.99-4.949,4.95&#10;&#9;&#9;&#9;&#9;c5.639,4.883,11.278,9.766,16.918,14.648C685.756,209.711,690.729,204.782,687.311,201.822L687.311,201.822z"/>
		</g>
	</g>
	<g>
		<g>
			<path fill="#422421" d="M686.007,285.039c-7.479-5.405-14.959-10.811-22.439-16.216c-1.571-1.135-3.066,1.469-1.514,2.591&#10;&#9;&#9;&#9;&#9;c7.479,5.405,14.959,10.811,22.439,16.216C686.064,288.765,687.559,286.16,686.007,285.039L686.007,285.039z"/>
		</g>
	</g>
	<g>
		<g>
			<path fill="#422421" d="M718.361,224.525c-11.279,9.766-22.558,19.531-33.836,29.297c-3.419,2.96,1.555,7.889,4.949,4.95&#10;&#9;&#9;&#9;&#9;c11.279-9.766,22.558-19.531,33.836-29.297C726.729,226.515,721.756,221.586,718.361,224.525L718.361,224.525z"/>
		</g>
	</g>
	<g>
		<g>
			<path fill="#422421" d="M687.733,308.458c11.6-8.775,23.199-17.55,34.798-26.325c1.522-1.151,0.03-3.759-1.514-2.591&#10;&#9;&#9;&#9;&#9;c-11.6,8.775-23.199,17.55-34.798,26.325C684.698,307.019,686.189,309.626,687.733,308.458L687.733,308.458z"/>
		</g>
	</g>
	<path fill="#A3A3D3" d="M632.593,323.935c4.731,4.768,4.986,10.535,1.588,13.907c-3.398,3.37-9.162,3.069-13.894-1.7&#10;&#9;&#9;c-6.608-6.661-9.649-22.811-10.04-22.426C609.859,314.101,625.984,317.273,632.593,323.935z"/>
	<path fill="#A3A3D3" d="M740.729,313.663c-3.314,3.85-7.647,4.384-10.392,2.021c-2.742-2.362-2.856-6.726,0.458-10.576&#10;&#9;&#9;c4.631-5.377,16.626-8.628,16.313-8.899C746.796,295.94,745.36,308.286,740.729,313.663z"/>
	<path fill="#A3A3D3" d="M656.994,224.446c3.536,3.564,3.727,7.875,1.187,10.396c-2.54,2.519-6.849,2.294-10.386-1.271&#10;&#9;&#9;c-4.94-4.979-7.214-17.052-7.506-16.765C640,217.095,652.054,219.466,656.994,224.446z"/>
	<path fill="#A3A3D3" d="M737.048,440.289c5.52-3.829,11.243-3.074,13.971,0.86c2.727,3.934,1.426,9.557-4.095,13.384&#10;&#9;&#9;c-7.711,5.347-24.144,5.527-23.833,5.979C723.402,460.961,729.337,445.635,737.048,440.289z"/>
	<path fill="#A3A3D3" d="M630.905,405.591c-4.95-1.146-7.436-4.733-6.621-8.261c0.817-3.526,4.628-5.656,9.577-4.511&#10;&#9;&#9;c6.914,1.601,15.367,10.71,15.462,10.308C649.417,402.724,637.818,407.191,630.905,405.591z"/>
</g>
<g>
	<path fill="#6C688C" d="M1215,271.101c0,20.931-16.968,37.899-37.898,37.899h-64.203c-20.931,0-37.898-16.968-37.898-37.899v-0.202&#10;&#9;&#9;c0-20.931,16.968-37.899,37.898-37.899h64.203c20.931,0,37.898,16.968,37.898,37.899V271.101z"/>
	<path fill="#6C688C" d="M1042,243.101c0,20.931-16.968,37.899-37.898,37.899h-50.203C932.968,281,916,264.032,916,243.101v-0.202&#10;&#9;&#9;C916,221.968,932.968,205,953.898,205h50.203c20.931,0,37.898,16.968,37.898,37.899V243.101z"/>
	<path fill="#6C688C" d="M1136,149.101c0,20.931-16.968,37.899-37.898,37.899h-78.203C998.968,187,982,170.032,982,149.101v-0.202&#10;&#9;&#9;c0-20.931,16.968-37.899,37.898-37.899h78.203c20.931,0,37.898,16.968,37.898,37.899V149.101z"/>
	<g>
		<g>
			<path fill="#422421" d="M1055,134.667c0,38.385,0,76.771,0,115.156c0,61.376,0,122.752,0,184.128c0,14.35,0,28.7,0,43.049&#10;&#9;&#9;&#9;&#9;c0,4.514,7,4.514,7,0c0-38.385,0-76.771,0-115.156c0-61.376,0-122.752,0-184.128c0-14.35,0-28.7,0-43.049&#10;&#9;&#9;&#9;&#9;C1062,130.152,1055,130.152,1055,134.667L1055,134.667z"/>
		</g>
	</g>
	<g>
		<g>
			<path fill="#422421" d="M1061.975,308.475c21.167-17,42.334-34,63.5-51c3.521-2.827-1.467-7.748-4.949-4.95&#10;&#9;&#9;&#9;&#9;c-21.167,17-42.334,34-63.5,51C1053.505,306.352,1058.492,311.272,1061.975,308.475L1061.975,308.475z"/>
		</g>
	</g>
	<g>
		<g>
			<path fill="#422421" d="M1060.311,180.822c-11.278-9.766-22.557-19.531-33.836-29.297c-3.395-2.939-8.368,1.99-4.949,4.95&#10;&#9;&#9;&#9;&#9;c11.278,9.766,22.557,19.531,33.836,29.297C1058.756,188.711,1063.729,183.782,1060.311,180.822L1060.311,180.822z"/>
		</g>
	</g>
	<g>
		<g>
			<path fill="#422421" d="M1059.561,165.394c10.917-9.889,21.834-19.778,32.75-29.667c1.437-1.301-0.691-3.417-2.121-2.121&#10;&#9;&#9;&#9;&#9;c-10.917,9.889-21.834,19.778-32.75,29.667C1056.003,164.574,1058.131,166.689,1059.561,165.394L1059.561,165.394z"/>
		</g>
	</g>
	<g>
		<g>
			<path fill="#422421" d="M1059.007,264.038c-18.083-9.889-36.166-19.778-54.25-29.667c-1.698-0.928-3.212,1.662-1.514,2.591&#10;&#9;&#9;&#9;&#9;c18.083,9.889,36.166,19.778,54.25,29.667C1059.191,267.557,1060.705,264.967,1059.007,264.038L1059.007,264.038z"/>
		</g>
	</g>
	<g>
		<g>
			<path fill="#422421" d="M1093.602,281.946c9.666,1.833,19.333,3.667,29,5.5c1.89,0.358,2.696-2.532,0.797-2.893&#10;&#9;&#9;&#9;&#9;c-9.666-1.833-19.333-3.667-29-5.5C1092.509,278.695,1091.702,281.586,1093.602,281.946L1093.602,281.946z"/>
		</g>
	</g>
	<path fill="#A3A3D3" d="M978.88,241.98c5.51,3.843,6.795,9.47,4.057,13.396c-2.738,3.925-8.463,4.664-13.973,0.821&#10;&#9;&#9;c-7.696-5.368-13.586-20.71-13.9-20.261C954.751,236.385,971.184,236.612,978.88,241.98z"/>
	<path fill="#A3A3D3" d="M1131.068,359.173c-3.813-5.531-9.434-6.848-13.375-4.131c-3.939,2.717-4.709,8.438-0.896,13.967&#10;&#9;&#9;c5.324,7.727,20.635,13.7,20.184,14.013C1136.53,383.331,1136.394,366.897,1131.068,359.173z"/>
	<path fill="#A3A3D3" d="M1161.532,281.241c-4.659,4.838-10.419,5.225-13.867,1.904c-3.446-3.32-3.277-9.09,1.383-13.928&#10;&#9;&#9;c6.509-6.759,22.585-10.167,22.191-10.548C1170.846,258.29,1168.041,274.482,1161.532,281.241z"/>
	<path fill="#A3A3D3" d="M1104.729,156.663c-3.314,3.85-7.647,4.384-10.392,2.021c-2.742-2.362-2.856-6.726,0.458-10.576&#10;&#9;&#9;c4.631-5.377,16.626-8.628,16.313-8.899C1110.796,138.94,1109.36,151.286,1104.729,156.663z"/>
	<path fill="#A3A3D3" d="M996.902,403.064c3.55-3.635,3.708-7.998,1.118-10.527s-6.947-2.266-10.497,1.368&#10;&#9;&#9;c-4.958,5.077-7.161,17.31-7.459,17.021C979.769,410.637,991.945,408.141,996.902,403.064z"/>
</g>
<g>
	<path fill="#6C688C" d="M89,751c0,18.777,15.222,34,34,34h236c18.778,0,34-15.223,34-34l0,0c0-18.777-15.222-34-34-34H123&#10;&#9;&#9;C104.222,717,89,732.223,89,751L89,751z"/>
	<path d="M 362.000008 694.823975 A 73.176003 73.176003 0 0 1 288.824005 767.999977 A 73.176003 73.176003 0 0 1 215.648003 694.823975 A 73.176003 73.176003 0 0 1 288.824005 621.647972 A 73.176003 73.176003 0 0 1 362.000008 694.823975 Z" fill="#6C688C"/>
	<path d="M 313.000008 608.823975 A 73.176003 73.176003 0 0 1 239.824005 681.999977 A 73.176003 73.176003 0 0 1 166.648003 608.823975 A 73.176003 73.176003 0 0 1 239.824005 535.647972 A 73.176003 73.176003 0 0 1 313.000008 608.823975 Z" fill="#6C688C"/>
	<path fill="#6C688C" d="M117.648,694.824c0,31.425,25.474,56.898,56.898,56.898s100.271-14.818,100.271-46.243&#10;&#9;&#9;s-68.847-67.554-100.271-67.554S117.648,663.399,117.648,694.824z"/>
	<g>
		<g>
			<path fill="#422421" d="M237,552c0,36.788,0,73.577,0,110.365c0,63.049,0,126.098,0,189.146c0,21.829,0,43.659,0,65.488&#10;&#9;&#9;&#9;&#9;c0,4.514,7,4.514,7,0c0-36.788,0-73.577,0-110.365c0-63.049,0-126.098,0-189.146c0-21.829,0-43.659,0-65.488&#10;&#9;&#9;&#9;&#9;C244,547.486,237,547.486,237,552L237,552z"/>
		</g>
	</g>
	<g>
		<g>
			<path fill="#422421" d="M241.975,762.525c-21.167-17-42.333-34-63.5-51c-3.483-2.798-8.47,2.122-4.95,4.949&#10;&#9;&#9;&#9;&#9;c21.167,17,42.333,34,63.5,51C240.508,770.272,245.495,765.353,241.975,762.525L241.975,762.525z"/>
		</g>
	</g>
	<g>
		<g>
			<path fill="#422421" d="M243.639,644.771c11.278-9.766,22.557-19.531,33.836-29.297c3.418-2.96-1.555-7.889-4.95-4.949&#10;&#9;&#9;&#9;&#9;c-11.278,9.766-22.557,19.531-33.836,29.297C235.271,642.782,240.244,647.711,243.639,644.771L243.639,644.771z"/>
		</g>
	</g>
	<g>
		<g>
			<path fill="#422421" d="M241.561,622.273c-10.917-9.89-21.833-19.778-32.75-29.668c-1.43-1.295-3.558,0.819-2.121,2.121&#10;&#9;&#9;&#9;&#9;c10.917,9.89,21.833,19.778,32.75,29.668C240.869,625.689,242.997,623.575,241.561,622.273L241.561,622.273z"/>
		</g>
	</g>
	<g>
		<g>
			<path fill="#422421" d="M241.811,725.395c10.917-9.89,21.833-19.778,32.75-29.668c1.437-1.302-0.691-3.416-2.121-2.121&#10;&#9;&#9;&#9;&#9;c-10.917,9.89-21.833,19.778-32.75,29.668C238.253,724.575,240.381,726.689,241.811,725.395L241.811,725.395z"/>
		</g>
	</g>
	<g>
		<g>
			<path fill="#422421" d="M204.601,738.054c-9.667,1.833-19.333,3.667-29,5.5c-1.899,0.36-1.093,3.251,0.798,2.893&#10;&#9;&#9;&#9;&#9;c9.667-1.833,19.333-3.667,29-5.5C207.298,740.586,206.492,737.695,204.601,738.054L204.601,738.054z"/>
		</g>
	</g>
	<path fill="#A3A3D3" d="M286.12,736.98c-5.51,3.842-6.795,9.47-4.057,13.396c2.738,3.925,8.463,4.663,13.973,0.82&#10;&#9;&#9;c7.696-5.367,13.586-20.71,13.9-20.261C310.249,731.385,293.816,731.612,286.12,736.98z"/>
	<path fill="#A3A3D3" d="M173.646,840.143c5.025-4.456,10.799-4.387,13.975-0.805c3.174,3.582,2.55,9.32-2.478,13.776&#10;&#9;&#9;c-7.021,6.225-23.315,8.355-22.953,8.767C162.553,862.289,166.625,846.367,173.646,840.143z"/>
	<path fill="#A3A3D3" d="M190.468,682.241c4.659,4.839,10.419,5.225,13.867,1.903c3.446-3.32,3.277-9.09-1.383-13.928&#10;&#9;&#9;c-6.509-6.759-22.585-10.167-22.191-10.549C181.154,659.289,183.959,675.482,190.468,682.241z"/>
	<path fill="#A3A3D3" d="M307.059,893.18c-4.311,2.689-8.606,1.91-10.523-1.161c-1.916-3.071-0.725-7.271,3.585-9.961&#10;&#9;&#9;c6.021-3.756,18.441-3.289,18.223-3.642C318.124,878.064,313.078,889.425,307.059,893.18z"/>
	<path fill="#A3A3D3" d="M285.714,661.221c-3.975,3.164-8.332,2.88-10.586,0.047c-2.255-2.832-1.552-7.141,2.423-10.305&#10;&#9;&#9;c5.552-4.418,17.944-5.373,17.688-5.699C294.98,644.94,291.266,656.803,285.714,661.221z"/>
</g>
<g>
	<g>
		<path fill="#422421" d="M89,922c19.389,0,38.777,0,58.166,0c50.599,0,101.198,0,151.797,0c70.46,0,140.921,0,211.381,0&#10;&#9;&#9;&#9;c78.973,0,157.945,0,236.918,0c76.135,0,152.27,0,228.405,0c61.948,0,123.896,0,185.845,0c36.413,0,72.825,0,109.237,0&#10;&#9;&#9;&#9;c5.084,0,10.167,0,15.251,0c4.514,0,4.514-7,0-7c-19.389,0-38.777,0-58.165,0c-50.6,0-101.198,0-151.798,0&#10;&#9;&#9;&#9;c-70.46,0-140.921,0-211.381,0c-78.973,0-157.945,0-236.917,0c-76.135,0-152.271,0-228.405,0c-61.949,0-123.897,0-185.846,0&#10;&#9;&#9;&#9;c-36.412,0-72.825,0-109.237,0c-5.083,0-10.167,0-15.25,0C84.486,915,84.486,922,89,922L89,922z"/>
	</g>
</g>
<g>
	<path d="M 892.058971 742.723999 A 63.063 63.063 0 0 1 828.995972 805.786999 A 63.063 63.063 0 0 1 765.932972 742.723999 A 63.063 63.063 0 0 1 828.995972 679.660999 A 63.063 63.063 0 0 1 892.058971 742.723999 Z" fill="#6C688C"/>
	<path d="M 1024.999981 711.752991 A 48.033001 48.033001 0 0 1 976.96698 759.785992 A 48.033001 48.033001 0 0 1 928.933979 711.752991 A 48.033001 48.033001 0 0 1 976.96698 663.71999 A 48.033001 48.033001 0 0 1 1024.999981 711.752991 Z" fill="#6C688C"/>
	<path d="M 940.000023 594.752991 A 67.678001 67.678001 0 0 1 872.322021 662.430992 A 67.678001 67.678001 0 0 1 804.64402 594.752991 A 67.678001 67.678001 0 0 1 872.322021 527.074989 A 67.678001 67.678001 0 0 1 940.000023 594.752991 Z" fill="#6C688C"/>
	<path fill="#6C688C" d="M985,624.898C985,603.968,968.032,587,947.102,587h-78.203C847.968,587,831,603.968,831,624.898v0.203&#10;&#9;&#9;C831,646.032,847.968,663,868.898,663h78.203C968.032,663,985,646.032,985,625.102V624.898z"/>
	<g>
		<g>
			<path fill="#422421" d="M904.934,610.666c0,40.808,0,81.615,0,122.423c0,57,0,113.999,0,170.999c0,5.638,0,11.274,0,16.912&#10;&#9;&#9;&#9;&#9;c0,4.514,7,4.514,7,0c0-40.808,0-81.615,0-122.423c0-57,0-113.999,0-170.999c0-5.638,0-11.274,0-16.912&#10;&#9;&#9;&#9;&#9;C911.934,606.152,904.934,606.152,904.934,610.666L904.934,610.666z"/>
		</g>
	</g>
	<g>
		<g>
			<path fill="#422421" d="M909.908,779.525c-21.166-17-42.333-34-63.5-51c-3.482-2.798-8.47,2.122-4.949,4.949&#10;&#9;&#9;&#9;&#9;c21.166,17,42.333,34,63.5,51C908.441,787.272,913.429,782.353,909.908,779.525L909.908,779.525z"/>
		</g>
	</g>
	<g>
		<g>
			<path fill="#422421" d="M911.572,661.771c11.279-9.766,22.558-19.531,33.836-29.297c3.419-2.96-1.555-7.889-4.949-4.949&#10;&#9;&#9;&#9;&#9;c-11.279,9.766-22.558,19.531-33.836,29.297C903.204,659.782,908.178,664.711,911.572,661.771L911.572,661.771z"/>
		</g>
	</g>
	<g>
		<g>
			<path fill="#422421" d="M909.494,639.273c-10.917-9.89-21.833-19.778-32.75-29.668c-1.43-1.295-3.558,0.819-2.121,2.121&#10;&#9;&#9;&#9;&#9;c10.917,9.89,21.833,19.778,32.75,29.668C908.803,642.689,910.931,640.575,909.494,639.273L909.494,639.273z"/>
		</g>
	</g>
	<g>
		<g>
			<path fill="#422421" d="M909.44,742.629c18.084-9.889,36.167-19.778,54.25-29.668c1.698-0.928,0.184-3.519-1.514-2.59&#10;&#9;&#9;&#9;&#9;c-18.084,9.889-36.167,19.778-54.25,29.668C906.229,740.967,907.743,743.558,909.44,742.629L909.44,742.629z"/>
		</g>
	</g>
	<g>
		<g>
			<path fill="#422421" d="M872.535,755.054c-9.667,1.833-19.334,3.667-29,5.5c-1.899,0.36-1.093,3.251,0.797,2.893&#10;&#9;&#9;&#9;&#9;c9.667-1.833,19.334-3.667,29-5.5C875.231,757.586,874.425,754.695,872.535,755.054L872.535,755.054z"/>
		</g>
	</g>
	<path fill="#A3A3D3" d="M982.054,705.98c-5.51,3.842-6.795,9.47-4.057,13.396c2.738,3.925,8.463,4.663,13.973,0.82&#10;&#9;&#9;c7.696-5.367,13.586-20.71,13.9-20.261C1006.183,700.385,989.75,700.612,982.054,705.98z"/>
	<path fill="#A3A3D3" d="M835.865,835.173c3.813-5.531,9.434-6.848,13.375-4.131c3.939,2.717,4.709,7.438,0.896,12.967&#10;&#9;&#9;c-5.324,7.727-20.635,13.7-20.184,14.013C830.403,858.331,830.54,842.897,835.865,835.173z"/>
	<path fill="#A3A3D3" d="M805.401,757.241c4.659,4.839,10.419,5.225,13.867,1.903c3.446-3.32,3.277-9.09-1.383-13.928&#10;&#9;&#9;c-6.509-6.759-22.585-10.167-22.191-10.549C796.088,734.289,798.893,750.482,805.401,757.241z"/>
	<path fill="#A3A3D3" d="M862.204,632.663c3.314,3.85,7.647,4.384,10.392,2.021c2.742-2.362,2.856-6.726-0.458-10.575&#10;&#9;&#9;c-4.631-5.378-16.626-8.629-16.313-8.899C856.138,614.939,857.573,627.286,862.204,632.663z"/>
	<path fill="#A3A3D3" d="M970.031,878.064c-3.55-3.635-3.708-7.998-1.118-10.527s6.947-2.266,10.497,1.368&#10;&#9;&#9;c4.958,5.077,7.161,17.31,7.459,17.021C987.165,885.637,974.988,883.141,970.031,878.064z"/>
	<path fill="#A3A3D3" d="M930.621,799.967c1.346-4.898,5.033-7.236,8.523-6.277c3.49,0.96,5.462,4.855,4.115,9.754&#10;&#9;&#9;c-1.881,6.842-11.33,14.917-10.93,15.028C932.729,818.581,928.739,806.809,930.621,799.967z"/>
</g>
<g>
	<path fill="#6C688C" d="M686.025,634.021c0,62.42-47.766,93.312-106.688,93.312s-106.688-30.892-106.688-93.312&#10;&#9;&#9;C472.649,571.6,520.415,529,579.337,529S686.025,571.6,686.025,634.021z"/>
	<path fill="#6C688C" d="M709,695.5c0-25.129-20.371-45.5-45.5-45.5h-172c-25.129,0-45.5,20.371-45.5,45.5l0,0&#10;&#9;&#9;c0,25.129,20.371,45.5,45.5,45.5h172C688.629,741,709,720.629,709,695.5L709,695.5z"/>
	<path d="M 553.666992 741.521973 A 37 37 0 0 1 516.666992 778.521973 A 37 37 0 0 1 479.666992 741.521973 A 37 37 0 0 1 516.666992 704.521973 A 37 37 0 0 1 553.666992 741.521973 Z" fill="#6C688C"/>
	<path d="M 646.500008 712.521973 A 56.417 56.417 0 0 1 590.083008 768.938972 A 56.417 56.417 0 0 1 533.666008 712.521973 A 56.417 56.417 0 0 1 590.083008 656.104973 A 56.417 56.417 0 0 1 646.500008 712.521973 Z" fill="#6C688C"/>
	<g>
		<g>
			<path fill="#422421" d="M573,551c0,36.788,0,73.577,0,110.365c0,63.049,0,126.098,0,189.146c0,21.829,0,43.659,0,65.488&#10;&#9;&#9;&#9;&#9;c0,4.514,7,4.514,7,0c0-36.788,0-73.577,0-110.365c0-63.049,0-126.098,0-189.146c0-21.829,0-43.659,0-65.488&#10;&#9;&#9;&#9;&#9;C580,546.486,573,546.486,573,551L573,551z"/>
		</g>
	</g>
	<g>
		<g>
			<path fill="#422421" d="M577.975,787.525c-21.167-17-42.333-34-63.5-51c-3.483-2.798-8.47,2.122-4.95,4.949&#10;&#9;&#9;&#9;&#9;c21.167,17,42.333,34,63.5,51C576.508,795.272,581.495,790.353,577.975,787.525L577.975,787.525z"/>
		</g>
	</g>
	<g>
		<g>
			<path fill="#422421" d="M579.639,643.771c11.279-9.766,22.558-19.531,33.836-29.297c3.419-2.96-1.555-7.889-4.949-4.949&#10;&#9;&#9;&#9;&#9;c-11.279,9.766-22.558,19.531-33.836,29.297C571.271,641.782,576.244,646.711,579.639,643.771L579.639,643.771z"/>
		</g>
	</g>
	<g>
		<g>
			<path fill="#422421" d="M577.561,621.273c-10.917-9.89-21.833-19.778-32.75-29.668c-1.43-1.295-3.558,0.819-2.121,2.121&#10;&#9;&#9;&#9;&#9;c10.917,9.89,21.833,19.778,32.75,29.668C576.869,624.689,578.997,622.575,577.561,621.273L577.561,621.273z"/>
		</g>
	</g>
	<path fill="#A3A3D3" d="M659.12,689.98c-5.51,3.842-6.795,9.47-4.057,13.396c2.738,3.925,8.463,4.663,13.973,0.82&#10;&#9;&#9;c7.696-5.367,13.586-20.71,13.9-20.261C683.249,684.385,666.816,684.612,659.12,689.98z"/>
	<path fill="#A3A3D3" d="M509.646,839.143c5.025-4.456,10.799-4.387,13.975-0.805c3.174,3.582,2.55,9.32-2.478,13.776&#10;&#9;&#9;c-7.021,6.225-23.315,8.355-22.953,8.767C498.553,861.289,502.625,845.367,509.646,839.143z"/>
	<path fill="#A3A3D3" d="M517.468,676.241c4.659,4.839,10.419,5.225,13.867,1.903c3.446-3.32,3.277-9.09-1.383-13.928&#10;&#9;&#9;c-6.509-6.759-22.585-10.167-22.191-10.549C508.154,653.289,510.959,669.482,517.468,676.241z"/>
	<path fill="#A3A3D3" d="M654.059,805.18c-4.311,2.689-8.606,1.91-10.523-1.161c-1.916-3.071-0.725-7.271,3.585-9.961&#10;&#9;&#9;c6.021-3.756,18.441-3.289,18.223-3.642C665.124,790.064,660.078,801.425,654.059,805.18z"/>
	<path fill="#A3A3D3" d="M617.472,859.895c-2.157-4.6-0.873-8.773,2.405-10.311c3.276-1.537,7.306,0.145,9.463,4.744&#10;&#9;&#9;c3.014,6.424,1.073,18.701,1.449,18.525C631.164,872.678,620.484,866.318,617.472,859.895z"/>
	<path fill="#A3A3D3" d="M622.714,581.221c-3.976,3.164-8.332,2.88-10.586,0.047c-2.255-2.832-1.552-7.141,2.423-10.305&#10;&#9;&#9;c5.552-4.418,17.944-5.373,17.688-5.699C631.98,564.94,628.266,576.803,622.714,581.221z"/>
	<g>
		<g>
			<path fill="#422421" d="M578.734,713.354c11.969-9.528,23.937-19.057,35.905-28.585c1.514-1.205-0.625-3.313-2.121-2.121&#10;&#9;&#9;&#9;&#9;c-11.969,9.528-23.937,19.057-35.905,28.585C575.1,712.438,577.238,714.545,578.734,713.354L578.734,713.354z"/>
		</g>
	</g>
</g>
<g>
	<path d="M 1291.388969 730.393005 A 94.392998 94.392998 0 0 1 1196.995972 824.786003 A 94.392998 94.392998 0 0 1 1102.602974 730.393005 A 94.392998 94.392998 0 0 1 1196.995972 636.000008 A 94.392998 94.392998 0 0 1 1291.388969 730.393005 Z" fill="#6C688C"/>
	<path d="M 1266.661972 643.666992 A 69.666 69.666 0 0 1 1196.995972 713.332993 A 69.666 69.666 0 0 1 1127.329971 643.666992 A 69.666 69.666 0 0 1 1196.995972 574.000992 A 69.666 69.666 0 0 1 1266.661972 643.666992 Z" fill="#6C688C"/>
	<path d="M 1241.009972 579.103027 A 44.014 44.014 0 0 1 1196.995972 623.117027 A 44.014 44.014 0 0 1 1152.981972 579.103027 A 44.014 44.014 0 0 1 1196.995972 535.089027 A 44.014 44.014 0 0 1 1241.009972 579.103027 Z" fill="#6C688C"/>
	<g>
		<g>
			<g>
				<path fill="#422421" d="M1194,563c0,37.621,0,75.242,0,112.863c0,62.281,0,124.562,0,186.842c0,17.765,0,35.53,0,53.295&#10;&#9;&#9;&#9;&#9;&#9;c0,4.514,7,4.514,7,0c0-37.621,0-75.242,0-112.863c0-62.281,0-124.562,0-186.842c0-17.765,0-35.53,0-53.295&#10;&#9;&#9;&#9;&#9;&#9;C1201,558.486,1194,558.486,1194,563L1194,563z"/>
			</g>
		</g>
		<g>
			<g>
				<path fill="#422421" d="M1199.267,760.978c-15.126-9.954-30.253-19.908-45.379-29.863c-3.783-2.489-7.286,3.575-3.533,6.045&#10;&#9;&#9;&#9;&#9;&#9;c15.126,9.954,30.253,19.908,45.379,29.863C1199.517,769.512,1203.02,763.447,1199.267,760.978L1199.267,760.978z"/>
			</g>
		</g>
		<g>
			<g>
				<path fill="#422421" d="M1199.311,638.822c-5.639-4.883-11.278-9.766-16.918-14.648c-3.395-2.939-8.368,1.989-4.949,4.949&#10;&#9;&#9;&#9;&#9;&#9;c5.639,4.883,11.278,9.766,16.918,14.648C1197.756,646.711,1202.729,641.782,1199.311,638.822L1199.311,638.822z"/>
			</g>
		</g>
		<g>
			<g>
				<path fill="#422421" d="M1198.007,722.039c-7.479-5.406-14.959-10.812-22.439-16.217c-1.571-1.136-3.065,1.469-1.514,2.59&#10;&#9;&#9;&#9;&#9;&#9;c7.479,5.406,14.959,10.812,22.439,16.217C1198.064,725.765,1199.559,723.16,1198.007,722.039L1198.007,722.039z"/>
			</g>
		</g>
		<g>
			<g>
				<path fill="#422421" d="M1230.361,661.525c-11.279,9.766-22.558,19.531-33.836,29.297c-3.419,2.96,1.555,7.889,4.949,4.949&#10;&#9;&#9;&#9;&#9;&#9;c11.279-9.766,22.558-19.531,33.836-29.297C1238.729,663.515,1233.756,658.586,1230.361,661.525L1230.361,661.525z"/>
			</g>
		</g>
		<g>
			<g>
				<path fill="#422421" d="M1199.733,745.457c11.6-8.774,23.199-17.549,34.798-26.324c1.522-1.151,0.03-3.758-1.514-2.59&#10;&#9;&#9;&#9;&#9;&#9;c-11.6,8.774-23.199,17.549-34.798,26.324C1196.697,744.019,1198.189,746.625,1199.733,745.457L1199.733,745.457z"/>
			</g>
		</g>
		<path fill="#A3A3D3" d="M1171.593,775.936c4.731,4.768,4.986,10.535,1.588,13.906c-3.398,3.37-9.162,3.069-13.894-1.699&#10;&#9;&#9;&#9;c-6.608-6.662-9.649-22.812-10.04-22.427C1148.859,766.102,1164.984,769.273,1171.593,775.936z"/>
		<path fill="#A3A3D3" d="M1228.729,623.663c-3.314,3.85-7.647,4.384-10.392,2.021c-2.742-2.362-2.856-6.726,0.458-10.575&#10;&#9;&#9;&#9;c4.631-5.378,16.626-8.629,16.313-8.899C1234.796,605.939,1233.36,618.286,1228.729,623.663z"/>
		<path fill="#A3A3D3" d="M1247.729,740.663c-3.314,3.85-7.647,4.384-10.392,2.021c-2.742-2.362-2.856-6.726,0.458-10.575&#10;&#9;&#9;&#9;c4.631-5.378,16.626-8.629,16.313-8.899C1253.796,722.939,1252.36,735.286,1247.729,740.663z"/>
		<path fill="#A3A3D3" d="M1168.994,661.445c3.536,3.564,3.727,7.876,1.187,10.396c-2.54,2.52-6.849,2.295-10.386-1.271&#10;&#9;&#9;&#9;c-4.94-4.979-7.214-17.052-7.506-16.765C1152,654.095,1164.054,656.466,1168.994,661.445z"/>
		<path fill="#A3A3D3" d="M1249.048,877.289c5.52-3.829,11.243-3.074,13.971,0.859c2.727,3.934,1.426,9.557-4.095,13.385&#10;&#9;&#9;&#9;c-7.711,5.346-24.144,5.527-23.833,5.979C1235.402,897.961,1241.337,882.635,1249.048,877.289z"/>
		<path fill="#A3A3D3" d="M1142.904,842.591c-4.949-1.146-7.436-4.733-6.62-8.261c0.817-3.526,4.628-5.656,9.577-4.511&#10;&#9;&#9;&#9;c6.914,1.601,15.367,10.71,15.462,10.308C1161.416,839.724,1149.818,844.191,1142.904,842.591z"/>
	</g>
</g>
</svg>